<?xml version="1.0" standalone="no"?>
<!DOCTYPE svg PUBLIC "-//W3C//DTD SVG 20010904//EN"
 "http://www.w3.org/TR/2001/REC-SVG-20010904/DTD/svg10.dtd">
<svg version="1.0" xmlns="http://www.w3.org/2000/svg"
 width="96.000000pt" height="96.000000pt" viewBox="0 0 96.000000 96.000000"
 preserveAspectRatio="xMidYMid meet">

<g transform="translate(0.000000,96.000000) scale(0.100000,-0.100000)"
fill="#000000" stroke="none">
<path d="M274 875 c-8 -21 5 -38 20 -26 15 12 354 10 374 -2 17 -11 32 0 32
24 0 18 -9 19 -210 19 -175 0 -212 -2 -216 -15z"/>
<path d="M210 785 c0 -16 6 -25 15 -25 8 0 15 5 15 10 0 6 88 10 245 10 157 0
245 -4 245 -10 0 -5 7 -10 15 -10 9 0 15 9 15 25 l0 25 -275 0 -275 0 0 -25z"/>
<path d="M273 704 c-3 -8 -1 -20 5 -26 8 -8 13 -7 18 5 5 15 24 17 130 17
l124 0 3 -172 3 -173 2 183 2 182 -140 0 c-118 0 -142 -2 -147 -16z"/>
<path d="M600 710 c0 -5 15 -10 34 -10 21 0 36 -6 40 -16 8 -20 26 -9 26 17 0
16 -7 19 -50 19 -27 0 -50 -4 -50 -10z"/>
<path d="M320 511 c0 -101 4 -161 10 -161 6 0 10 58 10 154 0 93 -4 157 -10
161 -7 4 -10 -50 -10 -154z"/>
<path d="M630 505 c0 -97 4 -155 10 -155 6 0 10 58 10 155 0 97 -4 155 -10
155 -6 0 -10 -58 -10 -155z"/>
<path d="M422 610 c0 -19 2 -27 5 -17 2 9 2 25 0 35 -3 9 -5 1 -5 -18z"/>
<path d="M397 523 c-13 -12 -7 -43 8 -43 10 0 15 -16 18 -57 l3 -58 2 63 c2
48 -1 62 -12 62 -9 0 -13 7 -11 20 4 21 2 24 -8 13z"/>
<path d="M399 326 c-2 -2 -38 -6 -79 -9 -76 -6 -163 -28 -190 -48 -12 -8 -10
-10 10 -5 53 11 159 25 238 32 59 5 82 10 82 20 0 13 -49 21 -61 10z"/>
<path d="M510 317 c0 -11 20 -16 83 -21 76 -7 177 -20 237 -32 20 -4 18 -1
-10 14 -37 21 -120 37 -237 47 -60 5 -73 4 -73 -8z"/>
<path d="M34 199 c-3 -6 -2 -15 4 -21 6 -6 12 -6 17 3 6 8 4 10 -5 4 -10 -6
-12 -4 -7 8 7 19 2 23 -9 6z"/>
<path d="M70 195 c0 -8 5 -15 10 -15 6 0 10 7 10 15 0 8 -4 15 -10 15 -5 0
-10 -7 -10 -15z"/>
<path d="M164 199 c-3 -6 -1 -16 6 -22 10 -9 11 -9 5 2 -4 8 -2 17 6 22 9 6
10 9 2 9 -6 0 -15 -5 -19 -11z"/>
<path d="M220 195 c0 -8 7 -15 15 -15 8 0 15 4 15 9 0 5 -7 11 -15 15 -9 3
-15 0 -15 -9z"/>
<path d="M280 195 c0 -8 5 -15 10 -15 6 0 10 7 10 15 0 8 -4 15 -10 15 -5 0
-10 -7 -10 -15z"/>
<path d="M340 199 c0 -5 -4 -7 -10 -4 -5 3 -10 1 -10 -4 0 -6 7 -11 15 -11 8
0 15 7 15 15 0 8 -2 15 -5 15 -3 0 -5 -5 -5 -11z"/>
<path d="M366 195 c-3 -9 0 -15 9 -15 9 0 12 6 9 15 -4 8 -7 15 -9 15 -2 0 -5
-7 -9 -15z"/>
<path d="M400 195 c0 -8 7 -15 15 -15 8 0 15 4 15 9 0 5 -7 11 -15 15 -9 3
-15 0 -15 -9z"/>
<path d="M457 203 c-12 -11 -8 -23 8 -23 8 0 15 7 15 15 0 16 -12 20 -23 8z"/>
<path d="M494 199 c-3 -6 -2 -15 3 -20 5 -5 9 -1 10 11 2 22 -2 25 -13 9z"/>
<path d="M536 201 c-4 -7 -5 -15 -2 -18 9 -9 19 4 14 18 -4 11 -6 11 -12 0z"/>
<path d="M606 195 c4 -8 8 -15 10 -15 2 0 4 7 4 15 0 8 -4 15 -10 15 -5 0 -7
-7 -4 -15z"/>
<path d="M690 194 c0 -8 5 -12 10 -9 6 4 8 11 5 16 -9 14 -15 11 -15 -7z"/>
<path d="M866 195 c4 -8 8 -15 10 -15 2 0 4 7 4 15 0 8 -4 15 -10 15 -5 0 -7
-7 -4 -15z"/>
<path d="M894 199 c-3 -6 -2 -15 3 -20 5 -5 9 -1 9 11 0 23 -2 24 -12 9z"/>
<path d="M135 190 c3 -5 8 -10 11 -10 2 0 4 5 4 10 0 6 -5 10 -11 10 -5 0 -7
-4 -4 -10z"/>
<path d="M830 185 c0 -8 4 -15 10 -15 5 0 7 7 4 15 -4 8 -8 15 -10 15 -2 0 -4
-7 -4 -15z"/>
<path d="M570 180 c0 -5 5 -10 11 -10 5 0 7 5 4 10 -3 6 -8 10 -11 10 -2 0 -4
-4 -4 -10z"/>
</g>
</svg>
